<svg xmlns="http://www.w3.org/2000/svg" width="72.38" height="72.38"><path d="M56.12 52.75c0 3.06-2.48 5.53-5.53 5.53H22.14c-3.06 0-5.54-2.47-5.54-5.53V38.77a5.54 5.54 0 015.54-5.54h28.45c3.05 0 5.53 2.48 5.53 5.54zM25.14 12.68l1.87 7.04 1.75-7.04h2.76l-3.17 10.46v7.14h-2.72v-7.14L22.4 12.68zm9.79 4.51c1.96 0 3.47 1.46 3.47 3.49v6.36c0 2.18-1.53 3.48-3.47 3.48-2.34 0-3.54-1.19-3.54-3.48v-6.36c0-2.08 1.41-3.49 3.54-3.49m5.52.11h2.41v9.95c0 .52.13.87.64.87.47 0 1.13-.6 1.42-.97V17.3h2.42v12.98h-2.42v-1.43c-1.04 1.24-2.06 1.62-2.79 1.62-1.29 0-1.68-1.04-1.68-2.32zM36.18 0C16.2 0 0 16.2 0 36.19c0 19.98 16.2 36.19 36.18 36.19 19.99 0 36.2-16.21 36.2-36.19C72.38 16.2 56.17 0 36.18 0m13.94 46.33h-2.04v-1.25c0-.85.18-1.45 1.03-1.45.83 0 1.01.61 1.01 1.45zm-.91-4.86c-2.07 0-3.49 1.48-3.49 3.63v5.55c0 2.23 1.12 3.83 3.32 3.83 2.42 0 3.44-1.45 3.44-3.83v-.93h-2.36v.86c0 1.08-.06 1.73-1.03 1.73-.93 0-1.01-.8-1.01-1.73v-2.33h4.4V45.1c0-2.23-1.07-3.63-3.27-3.63m-20.6-1.66h-2.68v14.33h-2.59V39.81h-2.68v-2.43h7.95zm4.23 1.97h2.3v12.36h-2.3v-1.36c-.43.5-.87.88-1.32 1.14-1.24.71-2.94.7-2.94-1.81V41.78h2.29v9.47c0 .5.13.84.62.84.44 0 1.07-.58 1.35-.93zm1.04-14.85v-6.04c0-.71.32-1.23 1-1.23.74 0 1.06.51 1.06 1.23v6.04c0 .71-.36 1.23-1.01 1.23-.67 0-1.05-.54-1.05-1.23m7.74 24.31c0 .4-.07.68-.2.86-.25.33-.8.31-1.18.12-.17-.09-.35-.23-.54-.43v-7.71c.16-.17.31-.29.47-.37.41-.21.93-.17 1.2.2.17.21.25.53.25.95zm.12-9.62c-.82 0-1.52.52-2.04 1.16v-5.4h-2.32v16.76h2.32v-.95c.64.8 1.34 1.11 2.18 1.11 1.53 0 2.1-1.19 2.1-2.72v-6.86c0-1.68-.55-3.1-2.24-3.1" fill="#e14e42"/></svg>